M48
; DRILL file {KiCad (6.0.1)} date Tue Mar  1 15:00:52 2022
; FORMAT={-:-/ absolute / inch / decimal}
; #@! TF.CreationDate,2022-03-01T15:00:52+00:00
; #@! TF.GenerationSoftware,Kicad,Pcbnew,(6.0.1)
; #@! TF.FileFunction,Plated,1,4,PTH
FMAT,2
INCH
; #@! TA.AperFunction,Plated,PTH,ViaDrill
T1C0.0118
; #@! TA.AperFunction,Plated,PTH,ComponentDrill
T2C0.0315
; #@! TA.AperFunction,Plated,PTH,ComponentDrill
T3C0.0350
; #@! TA.AperFunction,Plated,PTH,ComponentDrill
T4C0.0394
; #@! TA.AperFunction,Plated,PTH,ComponentDrill
T5C0.0402
; #@! TA.AperFunction,Plated,PTH,ViaDrill
T6C0.0433
; #@! TA.AperFunction,Plated,PTH,ViaDrill
T7C0.0472
; #@! TA.AperFunction,Plated,PTH,ComponentDrill
T8C0.0512
; #@! TA.AperFunction,Plated,PTH,ComponentDrill
T9C0.0551
; #@! TA.AperFunction,Plated,PTH,ComponentDrill
T10C0.0618
; #@! TA.AperFunction,Plated,PTH,ComponentDrill
T11C0.0701
; #@! TA.AperFunction,Plated,PTH,ComponentDrill
T12C0.0728
; #@! TA.AperFunction,Plated,PTH,ComponentDrill
T13C0.1260
%
G90
G05
T1
X2.1936Y-6.7853
X2.2438Y-7.2854
X2.3252Y-6.3118
X2.3499Y-4.8393
X2.5648Y-6.1781
X2.5817Y-6.3381
X2.8613Y-4.2185
X2.8817Y-5.9141
X2.9031Y-4.5263
X2.9111Y-4.1415
X2.9365Y-3.4459
X2.9472Y-6.4718
X2.9632Y-5.8785
X2.9746Y-5.1266
X2.9797Y-4.1364
X2.9867Y-3.3808
X3.014Y-4.699
X3.0307Y-3.4755
X3.044Y-4.1451
X3.0499Y-3.7152
X3.0565Y-4.9661
X3.06Y-5.8042
X3.0659Y-6.1969
X3.0673Y-4.4003
X3.0696Y-4.0496
X3.0696Y-4.3706
X3.0703Y-6.4668
X3.0849Y-6.8962
X3.0855Y-5.1868
X3.0952Y-4.1473
X3.1394Y-4.1448
X3.1464Y-4.0506
X3.1492Y-3.5057
X3.1699Y-3.6112
X3.1784Y-3.6481
X3.1911Y-4.3686
X3.1999Y-5.768
X3.224Y-4.8625
X3.2264Y-7.128
X3.2296Y-5.6768
X3.2585Y-7.2534
X3.2679Y-5.9358
X3.2763Y-7.3888
X3.2929Y-6.994
X3.3031Y-4.7659
X3.3265Y-5.4083
X3.3265Y-6.8096
X3.3317Y-6.067
X3.3389Y-7.3888
X3.3529Y-3.5854
X3.3553Y-3.9758
X3.3559Y-3.7715
X3.3565Y-3.0412
X3.3614Y-7.2658
X3.3958Y-5.3042
X3.3962Y-5.556
X3.402Y-4.7001
X3.4068Y-5.2389
X3.4137Y-4.4517
X3.4227Y-6.1694
X3.4418Y-5.912
X3.4504Y-6.5162
X3.4578Y-6.7176
X3.4643Y-3.2676
X3.473Y-6.7533
X3.4839Y-5.9064
X3.497Y-3.3155
X3.5031Y-3.5809
X3.5031Y-3.9514
X3.504Y-3.0461
X3.5099Y-7.1684
X3.5103Y-3.5527
X3.5143Y-6.2713
X3.5158Y-3.4214
X3.5226Y-6.3981
X3.5275Y-5.461
X3.531Y-5.35
X3.5452Y-5.5746
X3.5482Y-6.9617
X3.5607Y-3.4598
X3.6045Y-3.7405
X3.6095Y-5.1429
X3.61Y-3.2483
X3.6115Y-3.7088
X3.6123Y-7.4097
X3.6125Y-6.4928
X3.6162Y-3.4101
X3.617Y-3.5072
X3.6184Y-6.8487
X3.6203Y-5.9199
X3.6218Y-7.2774
X3.6304Y-5.2138
X3.6319Y-3.1631
X3.6368Y-5.9426
X3.6486Y-6.8435
X3.6862Y-3.4707
X3.7144Y-5.2109
X3.7159Y-4.2534
X3.7173Y-4.292
X3.7197Y-4.16
X3.7209Y-3.5374
X3.7251Y-3.0222
X3.7356Y-5.4395
X3.7393Y-6.8766
X3.764Y-3.7235
X3.7646Y-3.937
X3.767Y-3.569
X3.768Y-3.6959
X3.7995Y-7.5235
X3.8129Y-4.8757
X3.8137Y-6.4327
X3.8246Y-6.7496
X3.8365Y-4.7202
X3.8639Y-4.1833
X3.8771Y-6.8687
X3.8783Y-7.1697
X3.8829Y-3.1242
X3.8829Y-3.7331
X3.8976Y-6.0978
X3.9007Y-5.6991
X3.9127Y-3.0231
X3.9146Y-5.5318
X3.9167Y-3.5641
X3.9708Y-6.116
X3.9736Y-5.3065
X3.9901Y-6.2257
X4.011Y-3.6476
X4.0167Y-4.9102
X4.0273Y-3.1512
X4.0302Y-4.3294
X4.0336Y-3.3693
X4.061Y-3.7368
X4.068Y-7.2034
X4.0784Y-2.7281
X4.0849Y-5.6911
X4.0883Y-5.35
X4.1037Y-7.6149
X4.1087Y-3.1032
X4.1811Y-6.9917
X4.2018Y-6.7624
X4.242Y-5.9726
X4.2577Y-6.6062
X4.2678Y-7.6118
X4.273Y-7.4046
X4.2869Y-2.989
X4.3031Y-3.824
X4.3102Y-4.1334
X4.3119Y-5.8255
X4.3201Y-7.387
X4.3373Y-3.6838
X4.346Y-4.7639
X4.3569Y-5.3522
X4.3635Y-6.2904
X4.3693Y-3.9605
X4.3696Y-4.3652
X4.3696Y-5.9225
X4.3696Y-6.4612
X4.37Y-7.5893
X4.3854Y-3.5143
X4.4191Y-5.275
X4.4269Y-4.5972
X4.4321Y-3.8672
X4.4326Y-3.6469
X4.4498Y-4.8403
X4.471Y-4.6831
X4.4938Y-6.4952
X4.4938Y-6.5459
X4.4994Y-3.0908
X4.5105Y-6.7905
X4.5106Y-4.2189
X4.5111Y-4.2612
X4.5183Y-3.7764
X4.5401Y-4.3399
X4.5569Y-3.8586
X4.5586Y-6.0947
X4.5851Y-4.2189
X4.606Y-3.9134
X4.6179Y-4.2311
X4.6331Y-3.4326
X4.6345Y-6.3039
X4.6351Y-5.9996
X4.6637Y-2.9883
X4.6789Y-3.2847
X4.6813Y-6.7606
X4.6971Y-3.4504
X4.7574Y-3.7518
X4.8114Y-7.6244
X4.8231Y-4.5647
X4.8714Y-3.0973
X4.8776Y-3.9494
X4.8823Y-7.5474
X4.9215Y-4.8219
X4.9259Y-4.6586
X4.9463Y-3.1332
X4.9538Y-3.6925
X4.9625Y-3.9348
X4.9878Y-3.3655
X5.0039Y-2.98
X5.0231Y-7.4461
X5.0266Y-4.1178
X5.0597Y-4.9924
X5.0624Y-4.4313
X5.0694Y-7.3045
X5.0695Y-7.1118
X5.1199Y-4.1334
X5.1294Y-6.8713
X5.1364Y-7.4699
X5.1392Y-5.1568
X5.1476Y-2.929
X5.1503Y-5.2822
X5.1831Y-7.4637
X5.2081Y-7.6693
X5.2163Y-7.1077
X5.2251Y-3.0876
X5.2565Y-3.2249
X5.2862Y-7.2975
X5.2903Y-3.4299
X5.3181Y-3.4303
X5.3264Y-4.1393
X5.3821Y-3.8598
X5.4177Y-6.8774
X5.4257Y-5.1727
X5.4916Y-7.2495
X5.5061Y-4.5043
X5.6363Y-3.5146
X5.6464Y-4.158
X5.6715Y-6.7213
X5.6826Y-6.2832
X5.7179Y-3.1381
X5.7181Y-3.3331
X5.7692Y-3.543
X5.777Y-2.9804
X5.7918Y-3.4197
X5.8282Y-3.5804
X5.8283Y-3.6178
X5.8762Y-6.7072
X5.9518Y-3.6487
X5.9791Y-3.8056
X6.0277Y-3.3476
X6.0318Y-3.543
X6.0381Y-4.2891
X6.0442Y-3.9427
X6.0711Y-2.9679
X6.1201Y-2.7943
X6.1361Y-3.998
X6.1395Y-6.7853
X6.143Y-3.8662
X6.1437Y-3.901
X6.1592Y-6.0092
X6.1713Y-3.0053
X6.2462Y-3.1756
X6.2715Y-6.2773
X6.2811Y-2.8632
X6.3315Y-2.8323
X6.3445Y-6.8497
X6.3447Y-6.7497
X6.3448Y-6.798
X6.3451Y-6.6997
X6.3483Y-2.9605
X6.3718Y-6.2092
X6.3894Y-6.5681
X6.4036Y-4.1158
X6.4683Y-6.159
X6.4686Y-6.0598
X6.4692Y-6.0092
X6.544Y-2.9706
X6.5668Y-4.4035
X6.6483Y-7.2359
X6.655Y-4.2036
X6.7933Y-3.378
X6.8855Y-2.5122
X6.9767Y-4.2263
X7.0348Y-3.6524
X7.0415Y-3.9589
X7.0631Y-3.492
X7.1971Y-6.4532
X7.2544Y-2.8632
X7.2685Y-5.1501
X7.3059Y-4.2549
X7.3641Y-4.023
X7.3997Y-6.1661
X7.6206Y-3.4763
X7.7562Y-5.7409
X7.7727Y-5.6919
X7.9244Y-3.4527
X8.0309Y-4.1334
X8.0537Y-3.0293
X8.0587Y-5.312
X8.0602Y-3.3495
X8.0834Y-3.1815
X8.0936Y-3.1069
X8.109Y-7.2299
X8.1254Y-5.3367
X8.1372Y-6.6029
X8.1374Y-6.4029
X8.1387Y-5.2906
X8.1819Y-2.9284
X8.2141Y-5.9964
X8.2156Y-5.3019
X8.2286Y-5.9326
X8.2347Y-2.7589
X8.2639Y-5.2388
X8.2692Y-5.9316
X8.2697Y-3.3639
X8.309Y-3.2597
X8.3163Y-5.2495
X8.3429Y-5.2707
X8.3462Y-5.409
X8.3493Y-6.5146
X8.3713Y-6.0253
X8.3795Y-7.1584
X8.388Y-5.293
X8.4022Y-6.7853
X8.4466Y-6.4029
X8.6319Y-2.9208
X8.7104Y-5.9678
X8.8175Y-6.7853
X8.8939Y-6.1395
X8.8974Y-3.2627
X8.9128Y-4.5678
X8.9307Y-4.4413
X8.9839Y-4.1967
X8.986Y-5.9876
X8.9957Y-4.1231
X9.0171Y-6.8088
X9.0549Y-6.1761
X9.0583Y-3.2177
X9.0935Y-5.764
X9.1128Y-4.219
X9.1292Y-3.2503
X9.1385Y-5.608
X9.1404Y-3.9923
X9.1536Y-3.5733
X9.1576Y-3.4459
X9.1782Y-5.5041
X9.1951Y-3.7255
X9.2544Y-3.7604
X9.2766Y-3.6039
X9.277Y-3.7036
X9.2781Y-3.6547
X9.3102Y-5.3212
X9.3105Y-7.1666
X9.3299Y-5.7614
X9.3649Y-3.4574
X9.37Y-4.242
X9.3719Y-5.1456
X9.3832Y-6.6936
X9.3856Y-4.7615
X9.3938Y-7.2083
X9.4047Y-5.8154
X9.4088Y-6.1095
X9.4142Y-3.1772
X9.4369Y-3.6289
X9.4535Y-2.8875
X9.4584Y-2.5076
X9.4773Y-4.2494
X9.4803Y-3.9173
X9.4889Y-5.3826
X9.4968Y-2.8915
X9.557Y-2.3697
X9.5577Y-2.6463
X9.5627Y-6.6636
X9.5782Y-5.127
X9.6762Y-7.1543
X9.6929Y-4.7886
X9.7033Y-5.9012
X9.7192Y-3.4131
X9.734Y-4.4096
X9.7506Y-5.9152
X9.7645Y-3.9042
X9.7715Y-4.5921
X9.8096Y-4.3069
X9.8112Y-7.137
X9.8232Y-5.6277
X9.8418Y-3.5441
X9.8422Y-4.4281
X9.8433Y-4.8403
X9.8472Y-5.736
X9.8716Y-2.4164
X9.8771Y-7.0705
X9.8922Y-6.2701
X9.9595Y-2.5765
X9.9614Y-5.3747
X9.9651Y-2.8032
X9.9714Y-5.1035
X9.994Y-5.8106
X10.0408Y-6.1346
X10.044Y-3.3049
X10.0722Y-2.6081
X10.0932Y-6.2084
X10.0977Y-2.5398
X10.0991Y-3.2822
X10.1044Y-5.9629
X10.1088Y-3.7229
X10.1196Y-6.7713
X10.1229Y-3.2592
X10.1247Y-3.231
X10.1249Y-3.1543
X10.1285Y-2.6414
X10.1291Y-5.8141
X10.1326Y-6.1227
X10.1326Y-6.2331
X10.1375Y-3.7498
X10.1505Y-6.2974
X10.1528Y-4.2254
X10.166Y-6.3447
X10.1769Y-4.4546
X10.1859Y-3.8982
X10.1953Y-2.4269
X10.2001Y-6.1001
X10.2042Y-6.0718
X10.205Y-6.3395
X10.2091Y-6.0411
X10.2091Y-6.3954
X10.2167Y-5.7232
X10.2303Y-3.0775
X10.2307Y-3.1287
X10.2313Y-3.0263
X10.2404Y-6.7072
X10.2465Y-3.0519
X10.2508Y-7.1648
X10.2803Y-6.9367
X10.3024Y-6.3778
X10.3025Y-6.0608
X10.3168Y-6.3531
X10.3514Y-7.1782
X10.3536Y-6.9859
X10.3543Y-4.1361
X10.359Y-3.295
X10.3591Y-3.2397
X10.3598Y-6.3301
X10.3647Y-3.1031
X10.3708Y-6.107
X10.3861Y-2.7217
X10.3984Y-6.8088
X10.4255Y-6.1064
X10.4378Y-6.356
X10.4498Y-6.5894
X10.4517Y-6.4324
X10.4719Y-6.4826
X10.474Y-5.751
X10.485Y-2.3467
X10.5139Y-3.0775
X10.5146Y-3.1797
X10.5146Y-3.108
X10.5192Y-6.5889
X10.5337Y-6.1263
X10.5421Y-5.0814
X10.5424Y-6.3748
X10.5478Y-6.3249
X10.5541Y-6.297
X10.5558Y-6.2442
X10.5587Y-6.1001
X10.5609Y-4.1521
X10.5733Y-6.0608
X10.5796Y-6.183
X10.5871Y-7.4419
X10.5883Y-6.2494
X10.6051Y-6.0903
X10.6161Y-5.1355
X10.6206Y-6.0137
X10.6223Y-7.4828
X10.6255Y-2.6078
X10.6346Y-6.1297
X10.653Y-3.226
X10.6757Y-3.0204
X10.6946Y-6.7791
X10.7122Y-3.0839
X10.7635Y-7.094
X10.79Y-5.1503
X10.7926Y-4.804
X10.8012Y-2.4162
X10.8484Y-2.6147
X10.8484Y-3.1543
X10.8484Y-4.0458
X10.8724Y-5.0814
X10.888Y-3.0357
X10.8882Y-3.2655
X10.8926Y-6.0608
X10.8946Y-5.9966
X10.9468Y-5.144
X10.9835Y-5.312
X10.9959Y-6.1691
X11.0283Y-6.6808
X11.0425Y-4.2582
X11.0443Y-5.6202
X11.0454Y-6.1799
X11.0597Y-2.5765
X11.0606Y-3.8116
X11.0654Y-3.231
X11.0677Y-5.042
X11.0826Y-4.5362
X11.0826Y-4.7967
X11.0843Y-7.0661
X11.1179Y-6.8291
X11.1238Y-3.0352
X11.1395Y-5.6897
X11.1674Y-6.2196
X11.2224Y-3.979
X11.2391Y-5.0479
X11.25Y-5.1651
X11.2816Y-5.6291
X11.3551Y-5.3423
X11.362Y-5.4375
X11.3645Y-5.5922
X11.3651Y-3.7848
X11.3932Y-5.4103
X11.4075Y-4.1385
X11.4142Y-4.7315
X11.4514Y-4.8945
X11.4794Y-4.0248
X11.4801Y-3.9848
X11.5069Y-4.2891
X11.5306Y-4.8383
X11.5321Y-5.5751
X11.5728Y-4.1153
X11.5834Y-6.0676
X11.591Y-5.5193
X11.6179Y-3.7543
X11.6448Y-4.7613
X11.6456Y-3.2253
X11.6754Y-3.9504
X11.7023Y-2.9208
X11.7096Y-5.6292
X11.7304Y-3.9176
X11.732Y-3.1494
X11.7458Y-3.5214
X11.7667Y-6.196
X11.7902Y-5.0149
X11.7921Y-5.9033
X11.8Y-6.7311
X11.8286Y-5.2138
X11.8572Y-5.6067
X11.896Y-4.6568
X11.8984Y-4.2058
X11.9175Y-4.4501
X11.9214Y-3.8683
X12.0168Y-7.5081
X12.0211Y-4.8797
X12.022Y-5.5911
X12.0382Y-4.6227
X12.0414Y-7.3535
X12.0467Y-4.2031
X12.0795Y-6.3206
X12.1011Y-7.4387
X12.1147Y-4.7974
X12.1182Y-3.08
X12.1208Y-7.5765
X12.1242Y-2.932
X12.1528Y-3.618
X12.1767Y-4.5372
X12.241Y-4.0978
X12.2786Y-3.0293
X12.3039Y-4.2586
X12.3212Y-6.0274
X12.3744Y-3.3622
X12.379Y-6.4084
X12.3825Y-3.8387
X12.4153Y-5.9793
X12.4467Y-3.1745
X12.5099Y-3.0777
X12.5103Y-2.9976
X12.5292Y-4.7021
X12.5341Y-4.138
X12.542Y-6.3925
X12.5845Y-4.3298
X12.5856Y-5.6277
X12.5864Y-4.7852
X12.6077Y-4.6091
X12.6171Y-5.9014
X12.6211Y-3.6412
X12.6229Y-3.5604
X12.6309Y-4.0562
X12.7352Y-4.298
X12.7352Y-4.5001
X12.7561Y-3.3836
X12.803Y-6.1395
X12.8996Y-3.4768
X12.9325Y-3.6687
X12.9774Y-6.8067
X13.0007Y-4.8209
X13.0007Y-5.4157
X13.0063Y-3.6201
X13.0412Y-6.7311
X13.4032Y-3.7402
T2
X5.6149Y-3.8954
X5.8118Y-3.8954
X6.2055Y-4.2891
X6.4023Y-4.2891
X6.5992Y-3.8954
X6.796Y-3.8954
X8.1397Y-7.5568
X8.3366Y-7.5568
X8.6607Y-7.5568
X8.8576Y-7.5568
X9.1817Y-7.5568
X9.3786Y-7.5568
X9.7027Y-7.5568
X9.8996Y-7.5568
X10.0006Y-5.4761
X10.1975Y-5.4761
X10.3156Y-5.234
X10.3156Y-5.6671
X10.5124Y-5.234
X10.5124Y-5.6671
X10.8039Y-6.5332
X11.0007Y-6.5332
X11.1976Y-6.5332
X11.3944Y-6.5332
X12.5676Y-5.4111
X12.7644Y-5.4111
T3
X2.3915Y-6.1381
X2.3915Y-6.2181
X2.3915Y-6.2981
X2.3915Y-6.3781
X2.3915Y-7.142
X2.3915Y-7.222
X2.3915Y-7.302
X2.3915Y-7.382
X2.4616Y-6.0981
X2.4616Y-6.1781
X2.4616Y-6.2581
X2.4616Y-6.3381
X2.4616Y-7.102
X2.4616Y-7.182
X2.4616Y-7.262
X2.4616Y-7.342
T4
X2.1796Y-2.9741
X2.2796Y-2.9741
X2.3796Y-2.9741
X2.5796Y-2.9741
X2.6796Y-2.9741
X2.7796Y-2.9741
X2.8796Y-2.9741
X13.0822Y-4.2682
X13.0822Y-4.3773
X13.0822Y-4.4863
X13.0822Y-4.5954
X13.0822Y-4.7045
X13.194Y-4.3228
X13.194Y-4.4318
X13.194Y-4.5409
X13.194Y-4.6499
T5
X5.1129Y-4.7139
X5.1129Y-4.8139
X5.1129Y-4.9139
X5.1129Y-5.0139
X5.1129Y-5.1139
X5.1129Y-5.2139
X5.1129Y-5.3139
X5.1129Y-5.4139
X5.1129Y-5.5139
X5.1129Y-5.6139
X5.1129Y-5.7139
X5.1129Y-5.8139
X5.1129Y-5.9139
X5.1129Y-6.0139
X5.1129Y-6.1139
X5.1129Y-6.2139
X5.1129Y-6.3139
X5.1129Y-6.4139
X5.1129Y-6.5139
X5.2129Y-4.7139
X5.2129Y-4.8139
X5.2129Y-4.9139
X5.2129Y-5.0139
X5.2129Y-5.1139
X5.2129Y-5.2139
X5.2129Y-5.3139
X5.2129Y-5.4139
X5.2129Y-5.5139
X5.2129Y-5.6139
X5.2129Y-5.7139
X5.2129Y-5.8139
X5.2129Y-5.9139
X5.2129Y-6.0139
X5.2129Y-6.1139
X5.2129Y-6.2139
X5.2129Y-6.3139
X5.2129Y-6.4139
X5.2129Y-6.5139
X7.5129Y-4.7139
X7.5129Y-4.8139
X7.5129Y-4.9139
X7.5129Y-5.0139
X7.5129Y-5.1139
X7.5129Y-5.2139
X7.5129Y-5.3139
X7.5129Y-5.4139
X7.5129Y-5.5139
X7.5129Y-5.6139
X7.5129Y-5.7139
X7.5129Y-5.8139
X7.5129Y-5.9139
X7.5129Y-6.0139
X7.5129Y-6.1139
X7.5129Y-6.2139
X7.5129Y-6.3139
X7.5129Y-6.4139
X7.5129Y-6.5139
X7.6129Y-4.7139
X7.6129Y-4.8139
X7.6129Y-4.9139
X7.6129Y-5.0139
X7.6129Y-5.1139
X7.6129Y-5.2139
X7.6129Y-5.3139
X7.6129Y-5.4139
X7.6129Y-5.5139
X7.6129Y-5.6139
X7.6129Y-5.7139
X7.6129Y-5.8139
X7.6129Y-5.9139
X7.6129Y-6.0139
X7.6129Y-6.1139
X7.6129Y-6.2139
X7.6129Y-6.3139
X7.6129Y-6.4139
X7.6129Y-6.5139
T6
X12.7763Y-6.9519
X12.7763Y-7.2669
T7
X12.6208Y-7.2419
X12.7803Y-6.7891
X12.8521Y-7.1669
T8
X7.111Y-3.3442
X7.111Y-4.1316
X7.1897Y-3.108
X7.1897Y-3.5804
X7.1897Y-3.8954
X7.1897Y-4.3678
X7.67Y-3.108
X7.67Y-3.5804
X7.67Y-3.8954
X7.67Y-4.3678
X8.1326Y-3.9545
X8.1326Y-4.7419
X8.2114Y-3.7182
X8.2114Y-4.1907
X8.2114Y-4.5056
X8.2114Y-4.9781
X8.6917Y-3.7182
X8.6917Y-4.1907
X8.6917Y-4.5056
X8.6917Y-4.9781
T9
X2.2192Y-4.7734
X2.2192Y-4.9387
X2.2291Y-3.5214
X2.2291Y-3.8757
X2.2291Y-4.2615
X2.2291Y-4.4269
X2.2291Y-5.2852
X2.2291Y-5.4505
X2.4358Y-4.7734
X2.4358Y-4.9387
X2.4456Y-3.5214
X2.4456Y-3.8757
X2.4456Y-4.2615
X2.4456Y-4.4269
X2.4456Y-5.2852
X2.4456Y-5.4505
X4.2173Y-2.4289
X4.2173Y-2.6454
X4.5716Y-2.4289
X4.5716Y-2.6454
X4.9338Y-2.4289
X4.9338Y-2.6454
X5.295Y-2.4289
X5.295Y-2.6454
X5.6425Y-2.4289
X5.6425Y-2.6454
X5.9968Y-2.4289
X5.9968Y-2.6454
X6.3472Y-2.4289
X6.3472Y-2.6454
X6.5125Y-2.4289
X6.5125Y-2.6454
X6.8629Y-2.4289
X6.8629Y-2.6454
X7.2173Y-2.4289
X7.2173Y-2.6454
X7.5716Y-2.4289
X7.5716Y-2.6454
X7.9259Y-2.4289
X7.9259Y-2.6454
X8.2724Y-2.4289
X8.2724Y-2.6454
X8.4377Y-2.4289
X8.4377Y-2.6454
X8.6031Y-2.4289
X8.6031Y-2.6454
X8.9456Y-2.4289
X8.9456Y-2.6454
X9.111Y-2.4289
X9.111Y-2.6454
X11.674Y-2.3895
X11.674Y-2.606
X11.8393Y-2.3895
X11.8393Y-2.606
X12.1901Y-2.3895
X12.1901Y-2.606
X12.5244Y-2.3879
X12.5244Y-2.6045
X12.859Y-2.3879
X12.859Y-2.6045
X13.3314Y-7.6356
X13.42Y-2.3718
X13.42Y-2.5371
X13.42Y-2.7025
X13.42Y-2.8678
X13.42Y-3.0332
X13.42Y-3.1986
X13.42Y-3.3639
X13.42Y-3.5293
X13.548Y-7.6356
X13.6366Y-2.3718
X13.6366Y-2.5371
X13.6366Y-2.7025
X13.6366Y-2.8678
X13.6366Y-3.0332
X13.6366Y-3.1986
X13.6366Y-3.3639
X13.6366Y-3.5293
T10
X2.4265Y-5.9178
X2.4265Y-6.558
X2.4265Y-6.9218
X2.4265Y-7.5619
T11
X3.7369Y-2.4206
X3.7369Y-2.8111
X3.8708Y-2.4206
X3.8708Y-2.8111
X13.0086Y-6.1608
X13.0086Y-6.5513
X13.0086Y-6.9678
X13.0086Y-7.3584
X13.1425Y-6.1608
X13.1425Y-6.5513
X13.1425Y-6.9678
X13.1425Y-7.3584
T12
X13.4495Y-5.3718
X13.4495Y-5.6474
X13.4495Y-6.1592
X13.4495Y-6.4348
X13.4495Y-6.9663
X13.4495Y-7.2419
X13.6464Y-5.3718
X13.6464Y-5.6474
X13.6464Y-6.1592
X13.6464Y-6.4348
X13.6464Y-6.9663
X13.6464Y-7.2419
T13
X13.1381Y-3.9942
X13.1381Y-4.9785
T0
M30
