M48
; DRILL file {KiCad (6.0.2)} date Mon Mar  7 10:02:03 2022
; FORMAT={-:-/ absolute / metric / decimal}
; #@! TF.CreationDate,2022-03-07T10:02:03+00:00
; #@! TF.GenerationSoftware,Kicad,Pcbnew,(6.0.2)
; #@! TF.FileFunction,Plated,1,4,PTH
FMAT,2
METRIC
; #@! TA.AperFunction,Plated,PTH,ViaDrill
T1C0.400
; #@! TA.AperFunction,Plated,PTH,ViaDrill
T2C0.500
; #@! TA.AperFunction,Plated,PTH,ComponentDrill
T3C0.800
; #@! TA.AperFunction,Plated,PTH,ComponentDrill
T4C0.890
; #@! TA.AperFunction,Plated,PTH,ViaDrill
T5C1.000
; #@! TA.AperFunction,Plated,PTH,ComponentDrill
T6C1.000
; #@! TA.AperFunction,Plated,PTH,ComponentDrill
T7C1.020
; #@! TA.AperFunction,Plated,PTH,ComponentDrill
T8C1.300
; #@! TA.AperFunction,Plated,PTH,ComponentDrill
T9C1.400
; #@! TA.AperFunction,Plated,PTH,ViaDrill
T10C1.500
; #@! TA.AperFunction,Plated,PTH,ComponentDrill
T11C1.570
; #@! TA.AperFunction,Plated,PTH,ComponentDrill
T12C1.780
; #@! TA.AperFunction,Plated,PTH,ComponentDrill
T13C1.850
; #@! TA.AperFunction,Plated,PTH,ViaDrill
T14C2.000
; #@! TA.AperFunction,Plated,PTH,ViaDrill
T15C2.500
; #@! TA.AperFunction,Plated,PTH,ViaDrill
T16C3.000
; #@! TA.AperFunction,Plated,PTH,ComponentDrill
T17C3.200
; #@! TA.AperFunction,Plated,PTH,ViaDrill
T18C3.500
; #@! TA.AperFunction,Plated,PTH,ViaDrill
T19C4.000
%
G90
G05
T1
X83.84Y-189.638
X84.5Y-93.5
X87.54Y-86.828
X88.043Y-93.658
X88.356Y-177.197
X90.005Y-109.495
X90.663Y-171.43
X91.366Y-179.11
X92.991Y-85.594
X93.678Y-103.067
X95.5Y-181.607
X96.357Y-174.616
X97.023Y-92.242
X99.3Y-130.118
X99.797Y-173.378
X99.866Y-189.445
X101.497Y-127.806
X102.503Y-88.036
X102.583Y-77.922
X102.587Y-165.015
X104.599Y-160.438
X105.128Y-183.272
X107.0Y-172.338
X107.363Y-113.623
X108.127Y-99.013
X108.178Y-76.325
X108.5Y-189.129
X108.678Y-90.085
X110.5Y-127.0
X110.736Y-83.139
X111.692Y-74.299
X112.5Y-98.5
X112.54Y-181.634
X114.0Y-156.5
X114.5Y-88.5
X114.5Y-133.5
X114.591Y-135.172
X117.0Y-93.251
X117.167Y-168.115
X118.635Y-85.81
X120.604Y-153.55
X121.5Y-88.0
X121.574Y-85.595
X121.762Y-148.704
X123.0Y-85.0
X123.741Y-161.222
X124.625Y-179.541
X124.791Y-149.055
X125.742Y-170.016
X127.987Y-188.59
X128.158Y-152.005
X129.426Y-92.55
X130.16Y-165.618
X130.343Y-125.922
X130.852Y-98.073
X132.0Y-108.5
X132.0Y-119.0
X133.0Y-164.0
X133.025Y-114.0
X133.246Y-135.154
X135.0Y-59.5
X135.5Y-107.599
X135.818Y-95.394
X136.5Y-131.5
X136.5Y-133.0
X136.701Y-159.254
X137.604Y-147.5
X138.126Y-127.224
X140.458Y-85.741
X140.624Y-185.244
X141.0Y-126.0
X141.932Y-138.65
X142.125Y-82.08
X142.547Y-161.453
X143.0Y-90.0
X143.134Y-133.057
X143.212Y-155.155
X143.5Y-126.5
X144.0Y-129.0
X145.589Y-86.0
X148.429Y-142.33
X148.5Y-185.5
X152.1Y-182.785
X154.0Y-136.5
X155.903Y-91.94
X157.0Y-146.5
X160.0Y-114.5
X160.5Y-181.0
X163.176Y-180.074
X163.253Y-135.446
X164.5Y-131.5
X164.852Y-187.123
X166.0Y-148.5
X168.054Y-157.291
X171.0Y-98.0
X171.869Y-153.702
X173.952Y-133.297
X177.705Y-71.358
X177.733Y-150.772
X177.921Y-127.491
X179.259Y-137.882
X182.0Y-138.5
X182.489Y-153.308
X183.5Y-147.5
X184.664Y-164.423
X185.753Y-141.964
X187.245Y-170.603
X187.551Y-118.958
X188.705Y-71.361
X190.0Y-151.5
X190.439Y-130.827
X190.5Y-133.5
X192.016Y-76.232
X193.634Y-79.17
X194.276Y-163.118
X194.689Y-176.156
X196.0Y-98.0
X196.375Y-158.203
X197.344Y-168.909
X198.5Y-141.5
X199.032Y-178.5
X199.937Y-156.911
X199.998Y-174.112
X202.5Y-185.5
X203.695Y-111.18
X206.715Y-182.49
X207.0Y-159.0
X209.062Y-169.871
X209.936Y-176.692
X210.697Y-88.542
X211.5Y-163.5
X212.292Y-70.85
X212.358Y-168.632
X214.45Y-140.659
X214.5Y-167.0
X215.028Y-89.555
X215.739Y-98.361
X215.782Y-62.859
X218.167Y-143.853
X219.841Y-183.054
X220.135Y-80.24
X221.242Y-137.589
X221.384Y-176.472
X222.973Y-95.992
X223.061Y-94.943
X223.148Y-150.139
X223.359Y-116.937
X223.613Y-125.232
X223.996Y-162.408
X224.002Y-142.446
X224.996Y-133.083
X226.088Y-182.264
X226.985Y-144.195
X227.628Y-113.082
X228.999Y-119.428
X229.425Y-173.339
X230.913Y-133.413
X231.042Y-150.096
X232.321Y-178.379
X232.362Y-98.364
X232.402Y-110.364
X232.563Y-146.225
X233.234Y-75.328
X235.0Y-80.5
X235.628Y-174.477
X236.112Y-122.0
X236.568Y-91.637
X237.32Y-97.635
X237.75Y-143.047
X239.156Y-117.4
X244.139Y-137.4
X245.5Y-143.5
X245.896Y-148.027
X246.561Y-145.574
X246.68Y-123.772
X246.708Y-87.769
X247.1Y-113.347
X247.39Y-132.936
X248.164Y-116.922
X248.335Y-148.584
X251.154Y-130.341
X252.329Y-88.3
X252.341Y-89.406
X252.399Y-151.626
X253.275Y-138.579
X254.184Y-111.078
X254.261Y-112.111
X254.92Y-108.025
X255.009Y-121.52
X256.175Y-98.353
X257.5Y-148.5
X257.779Y-138.589
X259.0Y-147.0
X259.244Y-118.103
X259.524Y-113.111
X260.5Y-145.0
X261.268Y-153.872
X261.5Y-146.5
X262.002Y-88.075
X262.278Y-80.073
X262.927Y-113.409
X263.21Y-149.231
X263.99Y-116.817
X264.349Y-92.11
X266.25Y-129.92
X266.5Y-126.29
X266.593Y-137.357
X266.93Y-152.956
X267.324Y-143.0
X267.51Y-84.552
X267.7Y-68.818
X268.148Y-112.717
X268.734Y-148.5
X270.5Y-113.5
X270.786Y-138.644
X270.862Y-90.5
X271.262Y-69.389
X271.427Y-147.602
X272.0Y-115.051
X273.072Y-138.644
X273.83Y-125.395
X274.982Y-118.887
X276.506Y-138.535
X277.158Y-94.486
X277.259Y-139.256
X277.869Y-85.369
X278.581Y-117.972
X278.584Y-141.936
X278.677Y-150.637
X279.055Y-112.726
X279.249Y-90.843
X279.294Y-132.366
X280.016Y-79.0
X280.062Y-125.569
X280.196Y-144.309
X280.5Y-134.5
X281.051Y-80.728
X282.125Y-64.505
X282.412Y-144.316
X283.802Y-135.135
X284.67Y-114.024
X285.416Y-155.94
X285.446Y-143.434
X285.5Y-148.0
X286.001Y-118.581
X286.052Y-113.0
X286.645Y-85.564
X286.707Y-75.913
X287.118Y-161.882
X287.278Y-90.906
X287.5Y-114.5
X287.666Y-153.743
X289.542Y-107.65
X289.892Y-127.884
X290.0Y-110.5
X290.25Y-162.091
X290.5Y-152.5
X290.884Y-135.154
X291.2Y-146.904
X292.195Y-71.544
X293.973Y-98.371
X294.314Y-126.27
X294.5Y-181.147
X295.491Y-143.625
X295.788Y-111.938
X295.875Y-163.0
X295.911Y-151.378
X296.436Y-184.178
X296.947Y-88.0
X297.007Y-82.859
X298.37Y-159.471
X298.673Y-94.572
X299.0Y-165.0
X299.284Y-155.873
X299.316Y-134.385
X299.498Y-139.732
X300.875Y-76.828
X301.453Y-71.914
X302.245Y-135.32
X303.686Y-147.096
X304.244Y-88.881
X304.758Y-93.883
X305.598Y-140.61
X305.981Y-81.777
X308.381Y-90.622
X309.599Y-83.09
X309.771Y-158.052
X310.5Y-145.0
X310.5Y-152.5
X311.024Y-66.089
X312.54Y-93.876
X312.911Y-120.496
X313.62Y-134.175
X313.691Y-123.434
X313.826Y-152.951
X314.42Y-140.386
X314.467Y-128.486
X315.5Y-150.5
X315.837Y-97.248
X316.85Y-92.129
X318.0Y-147.5
X319.074Y-183.0
X320.895Y-107.654
X321.023Y-88.047
X321.402Y-127.794
X322.548Y-114.586
X324.0Y-175.5
X324.5Y-153.0
X326.194Y-148.996
X326.36Y-122.0
X326.493Y-173.056
X326.992Y-130.152
X329.702Y-88.917
X329.984Y-116.141
X331.535Y-167.985
X331.798Y-121.151
X331.992Y-127.0
X332.0Y-152.0
X332.425Y-93.803
X332.561Y-168.365
X333.5Y-118.5
X334.701Y-70.565
X335.0Y-83.0
X337.4Y-112.215
X339.952Y-79.156
X342.875Y-71.38
X342.875Y-82.894
X344.0Y-152.0
X344.961Y-94.582
X348.0Y-127.5
X348.164Y-112.447
X353.337Y-94.243
X354.0Y-154.5
X357.125Y-91.097
X359.115Y-105.385
X359.737Y-155.35
X360.869Y-99.369
T2
X129.0Y-68.5
X129.5Y-62.5
X129.5Y-65.0
X133.5Y-60.5
X133.5Y-62.5
X319.0Y-151.5
X320.5Y-151.5
X322.0Y-151.5
X326.5Y-151.5
X328.0Y-151.5
X329.6Y-151.5
T3
X179.0Y-81.0
X179.0Y-92.0
X184.0Y-81.0
X184.0Y-92.0
X190.0Y-92.0
X195.0Y-92.0
X250.5Y-156.097
X250.5Y-161.097
X250.5Y-166.195
X250.5Y-171.195
X250.68Y-176.0
X250.68Y-181.0
X250.758Y-186.097
X250.758Y-191.097
X262.86Y-176.0
X262.86Y-181.0
X262.918Y-186.097
X262.918Y-191.097
X263.0Y-165.5
X263.0Y-170.5
X275.0Y-165.5
X275.0Y-170.5
X275.04Y-176.0
X275.04Y-181.0
X275.079Y-186.097
X275.079Y-191.097
T4
X119.44Y-58.5
X120.456Y-60.28
X121.472Y-58.5
X122.488Y-60.28
X123.504Y-58.5
X124.52Y-60.28
X125.536Y-58.5
X126.552Y-60.28
X143.611Y-58.5
X144.627Y-60.28
X145.643Y-58.5
X146.659Y-60.28
X147.675Y-58.5
X148.691Y-60.28
X149.707Y-58.5
X150.723Y-60.28
T5
X133.5Y-182.0
X135.5Y-56.0
X139.0Y-182.5
X150.0Y-65.0
X153.5Y-68.0
X157.0Y-67.5
X160.5Y-164.5
X161.5Y-171.0
X163.5Y-167.0
X306.0Y-183.0
X311.5Y-182.9
X312.5Y-189.5
X316.0Y-158.5
X322.0Y-155.0
X324.3Y-162.0
X329.5Y-155.0
X332.0Y-162.0
X334.5Y-177.5
X338.0Y-150.0
X338.5Y-188.5
X344.0Y-190.0
X351.5Y-190.0
X363.0Y-151.0
T6
X119.242Y-187.6
X121.782Y-187.6
X124.322Y-187.6
X129.403Y-187.6
X131.942Y-187.6
X134.482Y-187.6
X137.023Y-187.6
X358.0Y-64.92
X358.0Y-67.69
X358.0Y-70.46
X358.0Y-73.23
X358.0Y-76.0
X360.84Y-66.305
X360.84Y-69.075
X360.84Y-71.845
X360.84Y-74.615
T7
X149.25Y-115.79
X149.25Y-118.33
X149.25Y-120.87
X149.25Y-123.41
X149.25Y-125.95
X149.25Y-128.49
X149.25Y-131.03
X149.25Y-133.57
X149.25Y-136.11
X149.25Y-138.65
X149.25Y-141.19
X149.25Y-143.73
X149.25Y-146.27
X149.25Y-148.81
X149.25Y-151.35
X149.25Y-153.89
X149.25Y-156.43
X149.25Y-158.97
X149.25Y-161.51
X151.79Y-115.79
X151.79Y-118.33
X151.79Y-120.87
X151.79Y-123.41
X151.79Y-125.95
X151.79Y-128.49
X151.79Y-131.03
X151.79Y-133.57
X151.79Y-136.11
X151.79Y-138.65
X151.79Y-141.19
X151.79Y-143.73
X151.79Y-146.27
X151.79Y-148.81
X151.79Y-151.35
X151.79Y-153.89
X151.79Y-156.43
X151.79Y-158.97
X151.79Y-161.51
X210.21Y-115.79
X210.21Y-118.33
X210.21Y-120.87
X210.21Y-123.41
X210.21Y-125.95
X210.21Y-128.49
X210.21Y-131.03
X210.21Y-133.57
X210.21Y-136.11
X210.21Y-138.65
X210.21Y-141.19
X210.21Y-143.73
X210.21Y-146.27
X210.21Y-148.81
X210.21Y-151.35
X210.21Y-153.89
X210.21Y-156.43
X210.21Y-158.97
X210.21Y-161.51
X212.75Y-115.79
X212.75Y-118.33
X212.75Y-120.87
X212.75Y-123.41
X212.75Y-125.95
X212.75Y-128.49
X212.75Y-131.03
X212.75Y-133.57
X212.75Y-136.11
X212.75Y-138.65
X212.75Y-141.19
X212.75Y-143.73
X212.75Y-146.27
X212.75Y-148.81
X212.75Y-151.35
X212.75Y-153.89
X212.75Y-156.43
X212.75Y-158.97
X212.75Y-161.51
T8
X97.85Y-111.0
X97.85Y-138.25
X99.85Y-105.0
X99.85Y-117.0
X99.85Y-132.25
X99.85Y-144.25
X112.05Y-105.0
X112.05Y-117.0
X112.05Y-132.25
X112.05Y-144.25
X354.95Y-129.0
X356.95Y-123.0
X356.95Y-135.0
X369.15Y-123.0
X369.15Y-135.0
T9
X73.75Y-69.0
X73.95Y-119.1
X73.95Y-123.3
X74.0Y-80.848
X74.0Y-85.048
X74.0Y-89.248
X74.0Y-101.095
X74.0Y-105.295
X74.0Y-133.19
X74.0Y-145.038
X74.0Y-156.886
X74.0Y-161.086
X74.0Y-172.933
X74.0Y-177.133
X79.25Y-69.0
X79.45Y-119.1
X79.45Y-123.3
X79.5Y-80.848
X79.5Y-85.048
X79.5Y-89.248
X79.5Y-101.095
X79.5Y-105.295
X79.5Y-133.19
X79.5Y-145.038
X79.5Y-156.886
X79.5Y-161.086
X79.5Y-172.933
X79.5Y-177.133
X164.761Y-53.75
X164.761Y-59.25
X175.772Y-53.75
X175.772Y-59.25
X186.783Y-53.75
X186.783Y-59.25
X197.793Y-53.75
X197.793Y-59.25
X208.804Y-53.75
X208.804Y-59.25
X213.004Y-53.75
X213.004Y-59.25
X224.015Y-53.75
X224.015Y-59.25
X235.025Y-53.75
X235.025Y-59.25
X246.036Y-53.75
X246.036Y-59.25
X257.047Y-53.75
X257.047Y-59.25
X268.057Y-53.75
X268.057Y-59.25
X279.068Y-53.75
X279.068Y-59.25
X290.079Y-53.75
X290.079Y-59.25
X301.089Y-53.75
X301.089Y-59.25
X305.289Y-53.75
X305.289Y-59.25
X316.3Y-53.75
X316.3Y-59.25
X320.5Y-53.75
X320.5Y-59.25
X324.7Y-53.75
X324.7Y-59.25
X328.9Y-53.75
X328.9Y-59.25
X332.5Y-185.25
X332.5Y-190.75
X333.1Y-53.75
X333.1Y-59.25
X337.3Y-53.75
X337.3Y-59.25
X341.5Y-53.75
X341.5Y-59.25
X345.7Y-53.75
X345.7Y-59.25
X366.75Y-113.0
X372.25Y-113.0
T10
X91.0Y-83.0
X91.5Y-95.5
X93.5Y-69.0
X98.5Y-83.0
X101.0Y-69.5
X108.5Y-108.5
X111.5Y-110.5
T11
X114.87Y-59.39
X131.13Y-59.39
X139.041Y-59.39
X155.301Y-59.39
T12
X88.04Y-67.3
X88.04Y-70.7
X97.96Y-67.3
X97.96Y-70.7
X361.54Y-143.3
X361.54Y-146.7
X362.54Y-186.8
X362.54Y-190.2
X371.46Y-143.3
X371.46Y-146.7
X372.46Y-186.8
X372.46Y-190.2
T13
X369.0Y-96.5
X369.0Y-103.5
X369.0Y-154.5
X369.0Y-161.5
X369.0Y-171.5
X369.0Y-178.5
X374.0Y-96.5
X374.0Y-103.5
X374.0Y-154.5
X374.0Y-161.5
X374.0Y-171.5
X374.0Y-178.5
T14
X327.5Y-185.5
X330.9Y-173.3
X339.0Y-182.0
X341.0Y-148.5
X344.0Y-186.0
X346.0Y-138.5
X352.5Y-144.0
X357.5Y-186.0
T15
X339.5Y-174.0
X355.5Y-165.0
T16
X346.0Y-103.0
T17
X359.42Y-57.96
X359.42Y-82.96
T18
X122.5Y-103.0
T19
X203.5Y-103.0
T0
M30
