M48
; DRILL file {KiCad (6.0.2)} date Fri Mar  4 16:05:50 2022
; FORMAT={-:-/ absolute / inch / decimal}
; #@! TF.CreationDate,2022-03-04T16:05:50+00:00
; #@! TF.GenerationSoftware,Kicad,Pcbnew,(6.0.2)
; #@! TF.FileFunction,Plated,1,4,PTH
FMAT,2
INCH
; #@! TA.AperFunction,Plated,PTH,ViaDrill
T1C0.0157
; #@! TA.AperFunction,Plated,PTH,ViaDrill
T2C0.0197
; #@! TA.AperFunction,Plated,PTH,ComponentDrill
T3C0.0315
; #@! TA.AperFunction,Plated,PTH,ComponentDrill
T4C0.0350
; #@! TA.AperFunction,Plated,PTH,ViaDrill
T5C0.0394
; #@! TA.AperFunction,Plated,PTH,ComponentDrill
T6C0.0394
; #@! TA.AperFunction,Plated,PTH,ComponentDrill
T7C0.0402
; #@! TA.AperFunction,Plated,PTH,ComponentDrill
T8C0.0512
; #@! TA.AperFunction,Plated,PTH,ComponentDrill
T9C0.0551
; #@! TA.AperFunction,Plated,PTH,ViaDrill
T10C0.0591
; #@! TA.AperFunction,Plated,PTH,ComponentDrill
T11C0.0618
; #@! TA.AperFunction,Plated,PTH,ComponentDrill
T12C0.0701
; #@! TA.AperFunction,Plated,PTH,ComponentDrill
T13C0.0728
; #@! TA.AperFunction,Plated,PTH,ViaDrill
T14C0.0787
; #@! TA.AperFunction,Plated,PTH,ViaDrill
T15C0.0984
; #@! TA.AperFunction,Plated,PTH,ComponentDrill
T16C0.1260
%
G90
G05
T1
X3.3008Y-7.4661
X3.3268Y-3.6811
X3.4465Y-3.4184
X3.4662Y-3.6873
X3.4786Y-6.9763
X3.5435Y-4.3108
X3.5694Y-6.7492
X3.5971Y-7.0516
X3.6611Y-3.3698
X3.6881Y-4.0578
X3.7598Y-7.1499
X3.7936Y-6.8746
X3.8198Y-3.6316
X3.9094Y-5.1228
X3.929Y-6.8259
X3.9317Y-7.4585
X3.9959Y-5.0317
X4.0356Y-3.466
X4.0387Y-3.0678
X4.0389Y-6.4967
X4.1181Y-6.3165
X4.1389Y-7.2154
X4.2126Y-6.785
X4.2269Y-4.4733
X4.257Y-3.8982
X4.259Y-3.0049
X4.2717Y-7.446
X4.2787Y-3.5467
X4.3597Y-3.2732
X4.3973Y-2.9251
X4.4291Y-3.878
X4.4307Y-7.1509
X4.4882Y-6.1614
X4.5079Y-3.4843
X4.5079Y-5.2559
X4.5115Y-5.3217
X4.6063Y-3.6713
X4.6129Y-6.6187
X4.6707Y-3.3783
X4.7482Y-6.0453
X4.7835Y-3.4646
X4.7864Y-3.3699
X4.7938Y-5.8545
X4.8425Y-3.3465
X4.8717Y-6.3473
X4.9065Y-7.0685
X4.913Y-5.8683
X4.9505Y-6.6935
X5.0389Y-7.4248
X5.0456Y-5.9844
X5.0955Y-3.6437
X5.1244Y-6.5204
X5.1316Y-4.9576
X5.1517Y-3.8612
X5.1969Y-4.2717
X5.2362Y-6.4567
X5.2372Y-4.4882
X5.2459Y-5.321
X5.315Y-2.3425
X5.3472Y-3.7557
X5.374Y-5.1772
X5.374Y-5.2362
X5.3819Y-6.2698
X5.4175Y-5.8071
X5.438Y-5.0088
X5.5298Y-3.3756
X5.5364Y-7.2931
X5.5512Y-4.9606
X5.5879Y-5.4587
X5.5955Y-3.2315
X5.6121Y-6.3564
X5.6299Y-3.5433
X5.6352Y-5.2385
X5.6383Y-6.1085
X5.6693Y-5.0787
X5.7319Y-3.3858
X5.8437Y-5.6035
X5.8465Y-7.3031
X5.9882Y-7.1963
X6.063Y-5.374
X6.1379Y-3.6197
X6.1811Y-5.7677
X6.3189Y-7.126
X6.4243Y-7.0895
X6.4273Y-5.3325
X6.4764Y-5.1772
X6.4902Y-7.367
X6.5354Y-5.8465
X6.6163Y-6.1926
X6.7323Y-3.8583
X6.7665Y-6.0513
X6.8485Y-5.2479
X6.9963Y-2.8094
X6.9974Y-5.9359
X7.0048Y-5.0193
X7.0574Y-5.4284
X7.1846Y-6.0357
X7.2244Y-5.8071
X7.2702Y-6.4733
X7.3131Y-5.5891
X7.3719Y-6.7167
X7.3839Y-4.6834
X7.4293Y-2.8095
X7.4803Y-5.9646
X7.4976Y-5.1507
X7.5Y-5.2559
X7.5597Y-3.0012
X7.6234Y-3.1169
X7.6487Y-6.422
X7.6649Y-6.9353
X7.7165Y-3.8583
X7.7313Y-6.2285
X7.7694Y-6.65
X7.8359Y-7.0276
X7.8715Y-6.1776
X7.8739Y-6.8548
X7.9724Y-7.3031
X8.0195Y-4.3772
X8.1384Y-7.1846
X8.1496Y-6.2598
X8.2308Y-6.6878
X8.2652Y-6.9564
X8.2952Y-3.4859
X8.358Y-2.7894
X8.3606Y-6.6391
X8.4429Y-5.5378
X8.4657Y-3.5258
X8.4937Y-3.8725
X8.4954Y-2.4748
X8.5893Y-5.6635
X8.6552Y-7.2069
X8.6667Y-3.1591
X8.7103Y-5.4169
X8.7159Y-6.9477
X8.7785Y-3.7792
X8.7819Y-3.7379
X8.7854Y-5.911
X8.7937Y-4.6038
X8.8037Y-4.9304
X8.8187Y-6.394
X8.819Y-5.6081
X8.8581Y-5.2395
X8.9011Y-7.1757
X8.9364Y-5.677
X8.9617Y-4.452
X9.0157Y-4.7019
X9.0325Y-6.8244
X9.0911Y-5.2525
X9.0961Y-5.9093
X9.1465Y-7.0228
X9.1481Y-3.8726
X9.1497Y-4.345
X9.156Y-5.7569
X9.1824Y-2.9657
X9.252Y-3.1693
X9.2767Y-6.8692
X9.2957Y-4.8031
X9.3137Y-3.6077
X9.3433Y-3.8439
X9.3602Y-5.6318
X9.4156Y-4.622
X9.6118Y-5.4094
X9.6654Y-5.6496
X9.6809Y-5.8278
X9.7071Y-5.7313
X9.7118Y-4.8729
X9.7129Y-3.4555
X9.7283Y-4.4625
X9.7398Y-5.2337
X9.7702Y-4.6032
X9.777Y-5.8498
X9.888Y-5.1315
X9.9342Y-3.4764
X9.9347Y-3.5199
X9.937Y-5.9695
X9.9715Y-5.4559
X10.0072Y-4.3731
X10.0103Y-4.4138
X10.0362Y-4.253
X10.0397Y-4.7843
X10.0856Y-3.8722
X10.1378Y-5.8465
X10.1488Y-5.4563
X10.1969Y-5.7874
X10.2065Y-4.6497
X10.2175Y-4.4532
X10.2559Y-5.7087
X10.2861Y-6.058
X10.2953Y-5.7677
X10.315Y-3.4675
X10.3259Y-3.1525
X10.3515Y-4.4649
X10.3626Y-5.8752
X10.3933Y-4.5991
X10.4074Y-3.6264
X10.4823Y-5.115
X10.4921Y-4.972
X10.4958Y-5.4078
X10.5091Y-6.0219
X10.5246Y-5.6299
X10.5319Y-3.3288
X10.5394Y-2.7094
X10.557Y-4.4377
X10.5801Y-5.8465
X10.6496Y-4.4685
X10.6609Y-5.4584
X10.6639Y-3.563
X10.6796Y-2.7319
X10.6861Y-5.8111
X10.7087Y-4.5296
X10.7509Y-5.4584
X10.7807Y-4.9368
X10.8261Y-4.6806
X10.8861Y-5.4541
X10.9117Y-3.7199
X10.9157Y-5.4825
X10.9397Y-3.361
X10.9678Y-4.6446
X10.9679Y-5.588
X10.9715Y-5.9306
X10.9864Y-4.438
X10.9941Y-3.5765
X10.9958Y-5.2113
X11.0243Y-3.1102
X11.0261Y-4.9437
X11.0313Y-5.6815
X11.0433Y-5.2953
X11.065Y-3.1783
X11.1073Y-2.5396
X11.1186Y-5.6817
X11.1733Y-5.3203
X11.2075Y-4.4891
X11.2369Y-6.1394
X11.238Y-5.647
X11.2402Y-5.8268
X11.2599Y-4.6685
X11.2619Y-4.4488
X11.2852Y-3.3687
X11.2877Y-2.9887
X11.3039Y-6.3733
X11.3102Y-3.579
X11.3189Y-4.5079
X11.3254Y-6.0529
X11.3993Y-4.2382
X11.4131Y-5.0348
X11.4173Y-4.3504
X11.4272Y-6.3815
X11.437Y-6.0039
X11.4521Y-5.321
X11.4646Y-5.7836
X11.5037Y-2.8167
X11.5737Y-3.8729
X11.5872Y-4.9713
X11.5945Y-7.1318
X11.6335Y-5.6545
X11.6452Y-4.407
X11.6486Y-6.4173
X11.65Y-5.9598
X11.6707Y-7.2511
X11.6908Y-3.4646
X11.6932Y-3.2622
X11.7469Y-6.2784
X11.7588Y-3.7233
X11.7717Y-6.4961
X11.7828Y-6.1367
X11.7841Y-5.2907
X11.7913Y-5.5013
X11.8455Y-3.0247
X11.8682Y-2.8313
X11.8994Y-5.3276
X11.9561Y-5.7912
X11.9781Y-3.4993
X11.9983Y-3.6962
X12.0314Y-5.5358
X12.0465Y-3.2196
X12.141Y-3.5678
X12.1889Y-3.2713
X12.1957Y-6.2225
X12.2244Y-5.7087
X12.2244Y-6.0039
X12.245Y-2.6019
X12.3047Y-3.6959
X12.3193Y-4.7439
X12.3472Y-5.2825
X12.35Y-4.8596
X12.3554Y-6.0217
X12.3787Y-5.527
X12.3806Y-5.0585
X12.4213Y-5.9252
X12.4345Y-3.8286
X12.4744Y-3.6271
X12.5197Y-5.8071
X12.562Y-7.2047
X12.6337Y-4.2383
X12.6387Y-3.4664
X12.6536Y-5.0313
X12.6987Y-4.5113
X12.7559Y-6.9094
X12.7756Y-6.0236
X12.8423Y-5.866
X12.8488Y-4.8031
X12.8541Y-6.8132
X12.8737Y-5.1241
X12.9804Y-3.5007
X12.9915Y-4.5725
X13.0526Y-6.6136
X13.0629Y-4.7697
X13.0706Y-5.0
X13.0709Y-5.9843
X13.0876Y-3.693
X13.093Y-6.6285
X13.1299Y-4.6654
X13.1772Y-2.7781
X13.189Y-3.2677
X13.2835Y-4.4179
X13.3839Y-3.1164
X13.499Y-2.8102
X13.499Y-3.2635
X13.5433Y-5.9843
X13.5811Y-3.7237
X13.7008Y-5.0197
X13.7072Y-4.427
X13.9109Y-3.7104
X13.937Y-6.0827
X14.06Y-3.5865
X14.1384Y-4.149
X14.1629Y-6.1161
X14.2074Y-3.9122
T2
X5.0787Y-2.6969
X5.0984Y-2.4606
X5.0984Y-2.5591
X5.2559Y-2.3819
X5.2559Y-2.4606
X12.5591Y-5.9646
X12.6181Y-5.9646
X12.6772Y-5.9646
X12.8543Y-5.9646
X12.9134Y-5.9646
X12.9764Y-5.9646
T3
X7.0472Y-3.189
X7.0472Y-3.622
X7.2441Y-3.189
X7.2441Y-3.622
X7.4803Y-3.622
X7.6772Y-3.622
X9.8622Y-6.1456
X9.8622Y-6.3424
X9.8622Y-6.5431
X9.8622Y-6.7399
X9.8693Y-6.9291
X9.8693Y-7.126
X9.8724Y-7.3267
X9.8724Y-7.5235
X10.3488Y-6.9291
X10.3488Y-7.126
X10.3511Y-7.3267
X10.3511Y-7.5235
X10.3543Y-6.5157
X10.3543Y-6.7126
X10.8268Y-6.5157
X10.8268Y-6.7126
X10.8283Y-6.9291
X10.8283Y-7.126
X10.8299Y-7.3267
X10.8299Y-7.5235
T4
X4.7024Y-2.3031
X4.7424Y-2.3732
X4.7824Y-2.3031
X4.8224Y-2.3732
X4.8624Y-2.3031
X4.9024Y-2.3732
X4.9424Y-2.3031
X4.9824Y-2.3732
X5.654Y-2.3031
X5.694Y-2.3732
X5.734Y-2.3031
X5.774Y-2.3732
X5.814Y-2.3031
X5.854Y-2.3732
X5.894Y-2.3031
X5.934Y-2.3732
T5
X5.2559Y-7.1654
X5.3346Y-2.2047
X5.4724Y-7.185
X5.9055Y-2.5591
X6.0433Y-2.6772
X6.1811Y-2.6575
X6.3189Y-6.4764
X6.3583Y-6.7323
X6.437Y-6.5748
X12.0472Y-7.2047
X12.2638Y-7.2008
X12.3031Y-7.4606
X12.4409Y-6.2402
X12.6772Y-6.1024
X12.7677Y-6.378
X12.9724Y-6.1024
X13.0709Y-6.378
X13.1693Y-6.9882
X13.3071Y-5.9055
X13.3268Y-7.4213
X13.5433Y-7.4803
X13.8386Y-7.4803
X14.2913Y-5.9449
T6
X4.6946Y-7.3858
X4.7946Y-7.3858
X4.8946Y-7.3858
X5.0946Y-7.3858
X5.1946Y-7.3858
X5.2946Y-7.3858
X5.3946Y-7.3858
X14.0945Y-2.5559
X14.0945Y-2.665
X14.0945Y-2.774
X14.0945Y-2.8831
X14.0945Y-2.9921
X14.2063Y-2.6104
X14.2063Y-2.7195
X14.2063Y-2.8285
X14.2063Y-2.9376
T7
X5.876Y-4.5587
X5.876Y-4.6587
X5.876Y-4.7587
X5.876Y-4.8587
X5.876Y-4.9587
X5.876Y-5.0587
X5.876Y-5.1587
X5.876Y-5.2587
X5.876Y-5.3587
X5.876Y-5.4587
X5.876Y-5.5587
X5.876Y-5.6587
X5.876Y-5.7587
X5.876Y-5.8587
X5.876Y-5.9587
X5.876Y-6.0587
X5.876Y-6.1587
X5.876Y-6.2587
X5.876Y-6.3587
X5.976Y-4.5587
X5.976Y-4.6587
X5.976Y-4.7587
X5.976Y-4.8587
X5.976Y-4.9587
X5.976Y-5.0587
X5.976Y-5.1587
X5.976Y-5.2587
X5.976Y-5.3587
X5.976Y-5.4587
X5.976Y-5.5587
X5.976Y-5.6587
X5.976Y-5.7587
X5.976Y-5.8587
X5.976Y-5.9587
X5.976Y-6.0587
X5.976Y-6.1587
X5.976Y-6.2587
X5.976Y-6.3587
X8.276Y-4.5587
X8.276Y-4.6587
X8.276Y-4.7587
X8.276Y-4.8587
X8.276Y-4.9587
X8.276Y-5.0587
X8.276Y-5.1587
X8.276Y-5.2587
X8.276Y-5.3587
X8.276Y-5.4587
X8.276Y-5.5587
X8.276Y-5.6587
X8.276Y-5.7587
X8.276Y-5.8587
X8.276Y-5.9587
X8.276Y-6.0587
X8.276Y-6.1587
X8.276Y-6.2587
X8.276Y-6.3587
X8.376Y-4.5587
X8.376Y-4.6587
X8.376Y-4.7587
X8.376Y-4.8587
X8.376Y-4.9587
X8.376Y-5.0587
X8.376Y-5.1587
X8.376Y-5.2587
X8.376Y-5.3587
X8.376Y-5.4587
X8.376Y-5.5587
X8.376Y-5.6587
X8.376Y-5.7587
X8.376Y-5.8587
X8.376Y-5.9587
X8.376Y-6.0587
X8.376Y-6.1587
X8.376Y-6.2587
X8.376Y-6.3587
T8
X3.8524Y-4.3701
X3.8524Y-5.4429
X3.9311Y-4.1339
X3.9311Y-4.6063
X3.9311Y-5.2067
X3.9311Y-5.6791
X4.4114Y-4.1339
X4.4114Y-4.6063
X4.4114Y-5.2067
X4.4114Y-5.6791
X13.9744Y-5.0787
X14.0531Y-4.8425
X14.0531Y-5.315
X14.5335Y-4.8425
X14.5335Y-5.315
T9
X2.9035Y-2.7165
X2.9114Y-4.689
X2.9114Y-4.8543
X2.9134Y-3.183
X2.9134Y-3.3483
X2.9134Y-3.5137
X2.9134Y-3.9801
X2.9134Y-4.1455
X2.9134Y-5.2437
X2.9134Y-5.7102
X2.9134Y-6.1766
X2.9134Y-6.342
X2.9134Y-6.8084
X2.9134Y-6.9738
X3.1201Y-2.7165
X3.128Y-4.689
X3.128Y-4.8543
X3.1299Y-3.183
X3.1299Y-3.3483
X3.1299Y-3.5137
X3.1299Y-3.9801
X3.1299Y-4.1455
X3.1299Y-5.2437
X3.1299Y-5.7102
X3.1299Y-6.1766
X3.1299Y-6.342
X3.1299Y-6.8084
X3.1299Y-6.9738
X6.4867Y-2.1161
X6.4867Y-2.3327
X6.9202Y-2.1161
X6.9202Y-2.3327
X7.3536Y-2.1161
X7.3536Y-2.3327
X7.7871Y-2.1161
X7.7871Y-2.3327
X8.2206Y-2.1161
X8.2206Y-2.3327
X8.386Y-2.1161
X8.386Y-2.3327
X8.8195Y-2.1161
X8.8195Y-2.3327
X9.253Y-2.1161
X9.253Y-2.3327
X9.6865Y-2.1161
X9.6865Y-2.3327
X10.1199Y-2.1161
X10.1199Y-2.3327
X10.5534Y-2.1161
X10.5534Y-2.3327
X10.9869Y-2.1161
X10.9869Y-2.3327
X11.4204Y-2.1161
X11.4204Y-2.3327
X11.8539Y-2.1161
X11.8539Y-2.3327
X12.0193Y-2.1161
X12.0193Y-2.3327
X12.4528Y-2.1161
X12.4528Y-2.3327
X12.6181Y-2.1161
X12.6181Y-2.3327
X12.7835Y-2.1161
X12.7835Y-2.3327
X12.9488Y-2.1161
X12.9488Y-2.3327
X13.0906Y-7.2933
X13.0906Y-7.5098
X13.1142Y-2.1161
X13.1142Y-2.3327
X13.2795Y-2.1161
X13.2795Y-2.3327
X13.4449Y-2.1161
X13.4449Y-2.3327
X13.6102Y-2.1161
X13.6102Y-2.3327
X14.439Y-4.4488
X14.6555Y-4.4488
T10
X3.5827Y-3.2677
X3.6024Y-3.7598
X3.6811Y-2.7165
X3.878Y-3.2677
X3.9764Y-2.7362
X4.2717Y-4.2717
X4.3898Y-4.3504
T11
X4.5224Y-2.3382
X5.1626Y-2.3382
X5.474Y-2.3382
X6.1142Y-2.3382
T12
X3.4661Y-2.6496
X3.4661Y-2.7835
X3.8567Y-2.6496
X3.8567Y-2.7835
X14.2339Y-5.6417
X14.2339Y-5.7756
X14.2732Y-7.3543
X14.2732Y-7.4882
X14.6244Y-5.6417
X14.6244Y-5.7756
X14.6638Y-7.3543
X14.6638Y-7.4882
T13
X14.5276Y-3.7992
X14.5276Y-4.0748
X14.5276Y-6.0827
X14.5276Y-6.3583
X14.5276Y-6.752
X14.5276Y-7.0276
X14.7244Y-3.7992
X14.7244Y-4.0748
X14.7244Y-6.0827
X14.7244Y-6.3583
X14.7244Y-6.752
X14.7244Y-7.0276
T14
X12.8937Y-7.3031
X13.0276Y-6.8228
X13.3465Y-7.1654
X13.4252Y-5.8465
X13.5433Y-7.3228
X13.622Y-5.4528
X13.878Y-5.6693
X14.0748Y-7.3228
T15
X13.3661Y-6.8504
X13.9961Y-6.4961
T16
X14.1504Y-2.2819
X14.1504Y-3.2661
T0
M30
