M48
; DRILL file {KiCad (6.0.1)} date Fri May 13 10:52:32 2022
; FORMAT={-:-/ absolute / inch / decimal}
; #@! TF.CreationDate,2022-05-13T10:52:32+01:00
; #@! TF.GenerationSoftware,Kicad,Pcbnew,(6.0.1)
; #@! TF.FileFunction,Plated,1,4,PTH
FMAT,2
INCH
; #@! TA.AperFunction,Plated,PTH,ViaDrill
T1C0.0118
; #@! TA.AperFunction,Plated,PTH,ComponentDrill
T2C0.0130
; #@! TA.AperFunction,Plated,PTH,ViaDrill
T3C0.0197
; #@! TA.AperFunction,Plated,PTH,ComponentDrill
T4C0.0197
; #@! TA.AperFunction,Plated,PTH,ComponentDrill
T5C0.0300
; #@! TA.AperFunction,Plated,PTH,ComponentDrill
T6C0.0315
; #@! TA.AperFunction,Plated,PTH,ComponentDrill
T7C0.0350
; #@! TA.AperFunction,Plated,PTH,ComponentDrill
T8C0.0394
; #@! TA.AperFunction,Plated,PTH,ComponentDrill
T9C0.0591
; #@! TA.AperFunction,Plated,PTH,ComponentDrill
T10C0.0618
%
G90
G05
T1
X4.7343Y-0.6791
X8.0225Y-3.115
X8.0315Y-3.0118
X8.1025Y-3.0175
X8.2Y-3.4
X8.4547Y-4.3996
X8.4843Y-4.3799
X8.8465Y-2.9646
X8.8484Y-2.9331
X8.8607Y-2.9084
X8.878Y-2.9626
X8.8819Y-2.9291
X8.9075Y-3.0413
X8.9764Y-2.874
X9.065Y-3.0217
X9.3275Y-3.275
X9.3575Y-3.54
X9.4075Y-3.365
X9.4575Y-3.59
X9.4587Y-4.8622
X9.4882Y-4.8327
X9.5295Y-4.8917
X9.5425Y-3.28
X9.5575Y-3.64
X9.6575Y-3.69
X9.6825Y-5.115
X9.6825Y-5.165
X9.6825Y-5.315
X9.7075Y-5.14
X9.7075Y-5.215
X9.7075Y-5.29
X9.7625Y-5.055
X9.77Y-3.8
X9.79Y-3.83
X9.81Y-3.86
X9.8175Y-6.405
X9.83Y-3.89
X9.9114Y-5.5118
X9.9114Y-5.9154
X9.9705Y-3.2677
X10.025Y-4.275
X10.0825Y-4.615
X10.1Y-5.05
X10.1075Y-4.59
X10.1325Y-4.565
X10.1575Y-4.54
X10.2075Y-5.5675
X10.2419Y-3.39
X10.3075Y-5.665
X10.3325Y-4.84
X10.3575Y-4.815
X10.3825Y-4.79
X10.4075Y-4.515
X10.4823Y-5.1969
X10.5512Y-4.7638
X10.7075Y-5.465
X10.7325Y-5.44
X10.748Y-4.813
X10.7575Y-5.365
X10.7825Y-5.34
X10.8071Y-5.4035
X10.8075Y-5.315
X10.8325Y-5.29
X10.8575Y-5.265
X10.8825Y-5.24
X10.8957Y-3.1496
X10.9075Y-5.04
X10.9075Y-5.1275
X10.9325Y-3.99
X10.9325Y-5.065
X10.9449Y-3.5728
X10.9575Y-5.14
X10.9575Y-5.39
X10.9825Y-5.165
X10.9825Y-5.415
X10.985Y-2.775
X11.0075Y-5.12
X11.0325Y-5.015
X11.0531Y-5.6398
X11.0825Y-3.0925
X11.0825Y-5.09
X11.1075Y-4.99
X11.1575Y-4.215
X11.2106Y-5.6398
X11.437Y-4.9134
X11.5945Y-4.8917
X11.6043Y-5.8957
X11.7525Y-2.73
X11.7656Y-5.4456
X11.9325Y-4.99
X11.9325Y-6.08
X11.9488Y-5.0492
X11.9575Y-4.79
X11.9783Y-5.1181
X12.0325Y-4.965
X12.1161Y-5.2165
X12.1825Y-5.015
X12.3575Y-5.04
X12.5325Y-5.015
T2
X7.8638Y-4.4444
X7.8638Y-4.4956
X7.915Y-4.4444
X7.915Y-4.4956
X7.9662Y-4.4444
X7.9662Y-4.4956
T3
X7.6929Y-3.4646
X7.6929Y-3.8898
X7.7461Y-3.0807
X7.7461Y-3.1496
X7.8346Y-2.9626
X7.835Y-4.255
X7.9528Y-4.9409
X8.0315Y-4.8031
X8.05Y-4.325
X8.061Y-4.4488
X8.0906Y-4.685
X8.248Y-4.7146
X8.2559Y-2.6496
X8.2677Y-4.311
X8.2677Y-4.4783
X8.2874Y-2.8839
X8.2874Y-2.9528
X8.3268Y-3.6516
X8.3268Y-3.7106
X8.3268Y-4.439
X8.3661Y-2.874
X8.3661Y-4.7244
X8.376Y-3.7795
X8.376Y-4.0453
X8.4154Y-4.6654
X8.435Y-3.4055
X8.4449Y-2.8839
X8.4449Y-2.9528
X8.4744Y-3.4449
X8.5039Y-3.4055
X8.5335Y-3.4449
X8.5669Y-6.189
X8.6122Y-3.0512
X8.7008Y-3.2874
X8.7106Y-3.435
X8.7165Y-4.5236
X8.7205Y-2.5945
X8.7402Y-3.061
X8.7402Y-3.1299
X8.7402Y-3.189
X8.7402Y-3.248
X8.7402Y-3.3268
X8.7402Y-3.3858
X8.8189Y-3.061
X8.8189Y-3.1299
X8.8189Y-3.189
X8.8189Y-3.248
X8.8681Y-3.002
X8.878Y-3.9173
X8.9252Y-6.5591
X9.3386Y-6.0787
X9.3504Y-3.0413
X9.3504Y-5.6102
X9.3858Y-4.7047
X9.3996Y-5.1181
X9.4587Y-6.4272
X9.5157Y-2.6772
X9.535Y-3.095
X9.5472Y-2.7657
X9.5768Y-6.2894
X9.5768Y-6.5748
X9.6063Y-3.0118
X9.626Y-6.5945
X9.7047Y-5.4232
X9.7047Y-6.0531
X9.7825Y-5.44
X9.8025Y-5.045
X9.8031Y-4.685
X9.813Y-6.6043
X9.8819Y-4.6358
X9.9213Y-4.7638
X9.935Y-6.505
X9.9508Y-2.9232
X9.9606Y-4.9311
X9.9705Y-5.2657
X9.9775Y-5.405
X10.0Y-4.5866
X10.0197Y-3.2677
X10.0689Y-5.876
X10.0984Y-5.2264
X10.1083Y-5.5118
X10.1181Y-3.2677
X10.125Y-4.2186
X10.1575Y-5.5413
X10.1575Y-6.0236
X10.1732Y-3.0866
X10.1772Y-5.7972
X10.1969Y-5.2461
X10.1969Y-5.5118
X10.23Y-3.68
X10.2598Y-5.0
X10.2657Y-5.7087
X10.3642Y-3.1201
X10.374Y-6.565
X10.3839Y-5.4528
X10.3937Y-5.2559
X10.4035Y-2.64
X10.4291Y-5.0039
X10.4575Y-2.64
X10.4575Y-5.695
X10.4823Y-2.6969
X10.5217Y-5.4035
X10.5315Y-3.061
X10.5512Y-2.8248
X10.561Y-5.2264
X10.6004Y-5.4134
X10.6102Y-4.6457
X10.6102Y-6.4272
X10.6299Y-6.4764
X10.6398Y-6.1024
X10.6398Y-6.2303
X10.6594Y-5.4429
X10.7087Y-3.1496
X10.7425Y-3.305
X10.748Y-4.7441
X10.7579Y-3.5531
X10.8957Y-6.4272
X10.9843Y-6.2795
X10.9941Y-5.9449
X11.0531Y-2.64
X11.063Y-6.0335
X11.063Y-6.2008
X11.0925Y-3.7205
X11.1122Y-2.64
X11.1122Y-5.0394
X11.1125Y-3.85
X11.1516Y-6.122
X11.1614Y-3.1791
X11.2303Y-6.0335
X11.2303Y-6.2008
X11.2362Y-5.5039
X11.3091Y-5.9449
X11.3091Y-6.2795
X11.3386Y-3.3563
X11.3425Y-4.5394
X11.3425Y-4.6142
X11.437Y-4.9921
X11.4567Y-5.1378
X11.475Y-2.725
X11.4862Y-5.6594
X11.5256Y-4.7539
X11.5846Y-2.5984
X11.624Y-5.7382
X11.6339Y-5.9941
X11.6575Y-6.4685
X11.7625Y-4.99
X11.7825Y-5.14
X11.8825Y-5.59
X11.9325Y-6.365
X12.0075Y-5.79
X12.0669Y-5.4823
X12.122Y-4.2047
X12.1725Y-5.955
X12.2165Y-6.2795
X12.2756Y-4.4409
X12.4055Y-5.374
X12.5236Y-6.3543
X12.6102Y-4.5354
X12.6929Y-2.9016
X12.8346Y-3.378
X12.8661Y-5.4528
T4
X8.7303Y-4.8425
X8.7303Y-4.8917
X9.3799Y-6.3969
X9.3799Y-6.4461
X11.4272Y-3.4646
X11.4764Y-3.4646
X11.5256Y-3.4646
X11.5748Y-3.4646
X11.5825Y-3.215
X11.5825Y-3.2642
X11.6083Y-4.465
X11.6575Y-4.465
X11.7825Y-4.84
X11.7825Y-4.8892
T5
X9.0325Y-5.1142
X9.0325Y-5.2142
X9.0325Y-5.3142
X9.0325Y-5.4142
X9.0325Y-5.5142
X9.0325Y-5.6142
X9.0325Y-5.7142
X9.1575Y-3.44
X9.2575Y-3.44
X9.3575Y-3.44
X9.4575Y-3.44
X9.5575Y-3.44
X9.6575Y-3.44
X9.7575Y-3.44
X10.3075Y-3.44
X10.4075Y-3.44
X10.5075Y-3.44
X10.6075Y-3.44
X10.7075Y-3.44
X10.8075Y-3.44
X10.9075Y-3.44
T7
X10.2075Y-2.84
X10.2475Y-2.7699
X10.2875Y-2.84
X10.3275Y-2.7699
X10.3675Y-2.84
X10.4075Y-2.7699
X10.4475Y-2.84
X10.4875Y-2.7699
T8
X10.34Y-3.92
X10.34Y-4.02
X10.34Y-4.12
X10.34Y-4.22
X10.34Y-4.32
X10.34Y-4.42
X10.7184Y-3.79
X10.7184Y-3.89
X10.7184Y-3.99
X10.7184Y-4.09
X10.7184Y-4.19
X10.8184Y-3.79
X10.8184Y-3.89
X10.8184Y-3.99
X10.8184Y-4.09
X10.8184Y-4.19
X11.825Y-6.575
X11.925Y-6.575
X12.025Y-6.575
X12.1075Y-5.715
X12.1075Y-5.8134
X12.1075Y-5.9119
X12.125Y-6.575
X12.225Y-6.575
X12.325Y-6.575
X12.6784Y-5.715
X12.6784Y-5.9119
T9
X8.6075Y-3.715
X8.6075Y-3.915
X8.6075Y-4.115
X8.6325Y-5.215
X8.6325Y-5.415
X8.6325Y-5.615
T10
X10.0276Y-2.805
X10.6677Y-2.805
T6
G00X10.1435Y-6.3264
M15
G01X10.1435Y-6.2398
M16
G05
G00X10.3837Y-6.165
M15
G01X10.2813Y-6.165
M16
G05
G00X10.3758Y-6.3933
M15
G01X10.2892Y-6.3933
M16
G05
T9
G00X12.3772Y-5.593
M15
G01X12.4284Y-5.593
M16
G05
G00X12.3772Y-6.0339
M15
G01X12.4284Y-6.0339
M16
G05
T0
M30
